<svg width="800" height="600" xmlns="http://www.w3.org/2000/svg">
  <rect width="800" height="600" fill="#1e1e1e"/>
  <text x="400" y="80" font-family="Arial" font-size="32" fill="#ffffff" text-anchor="middle">E-commerce Orders</text>
  
  <!-- Filter and search -->
  <rect x="100" y="120" width="600" height="60" rx="8" fill="#2a2a2a"/>
  <rect x="120" y="135" width="200" height="30" rx="5" fill="#3a3a3a"/>
  <rect x="340" y="135" width="120" height="30" rx="5" fill="#3a3a3a"/>
  <rect x="480" y="135" width="120" height="30" rx="5" fill="#3a3a3a"/>
  <rect x="620" y="135" width="60" height="30" rx="5" fill="#4a90e2"/>
  
  <!-- Table header -->
  <rect x="100" y="200" width="600" height="50" rx="5" fill="#2a2a2a"/>
  <rect x="110" y="215" width="80" height="20" rx="3" fill="#3a3a3a"/>
  <rect x="210" y="215" width="120" height="20" rx="3" fill="#3a3a3a"/>
  <rect x="350" y="215" width="100" height="20" rx="3" fill="#3a3a3a"/>
  <rect x="470" y="215" width="100" height="20" rx="3" fill="#3a3a3a"/>
  <rect x="590" y="215" width="100" height="20" rx="3" fill="#3a3a3a"/>
  
  <!-- Table rows -->
  <rect x="100" y="260" width="600" height="60" rx="5" fill="#2a2a2a"/>
  <rect x="110" y="280" width="80" height="20" rx="3" fill="#3a3a3a"/>
  <rect x="210" y="280" width="120" height="20" rx="3" fill="#3a3a3a"/>
  <rect x="350" y="280" width="100" height="20" rx="3" fill="#3a3a3a"/>
  <rect x="470" y="280" width="100" height="20" rx="3" fill="#3a3a3a"/>
  <rect x="590" y="280" width="60" height="20" rx="10" fill="#4a90e2"/>
  
  <rect x="100" y="330" width="600" height="60" rx="5" fill="#2a2a2a"/>
  <rect x="110" y="350" width="80" height="20" rx="3" fill="#3a3a3a"/>
  <rect x="210" y="350" width="120" height="20" rx="3" fill="#3a3a3a"/>
  <rect x="350" y="350" width="100" height="20" rx="3" fill="#3a3a3a"/>
  <rect x="470" y="350" width="100" height="20" rx="3" fill="#3a3a3a"/>
  <rect x="590" y="350" width="60" height="20" rx="10" fill="#f5a623"/>
  
  <rect x="100" y="400" width="600" height="60" rx="5" fill="#2a2a2a"/>
  <rect x="110" y="420" width="80" height="20" rx="3" fill="#3a3a3a"/>
  <rect x="210" y="420" width="120" height="20" rx="3" fill="#3a3a3a"/>
  <rect x="350" y="420" width="100" height="20" rx="3" fill="#3a3a3a"/>
  <rect x="470" y="420" width="100" height="20" rx="3" fill="#3a3a3a"/>
  <rect x="590" y="420" width="60" height="20" rx="10" fill="#7ed321"/>
  
  <rect x="100" y="470" width="600" height="60" rx="5" fill="#2a2a2a"/>
  <rect x="110" y="490" width="80" height="20" rx="3" fill="#3a3a3a"/>
  <rect x="210" y="490" width="120" height="20" rx="3" fill="#3a3a3a"/>
  <rect x="350" y="490" width="100" height="20" rx="3" fill="#3a3a3a"/>
  <rect x="470" y="490" width="100" height="20" rx="3" fill="#3a3a3a"/>
  <rect x="590" y="490" width="60" height="20" rx="10" fill="#4a90e2"/>
  
  <!-- Pagination -->
  <rect x="300" y="550" width="200" height="30" rx="5" fill="#2a2a2a"/>
  <rect x="320" y="555" width="20" height="20" rx="3" fill="#3a3a3a"/>
  <rect x="350" y="555" width="20" height="20" rx="3" fill="#4a90e2"/>
  <rect x="380" y="555" width="20" height="20" rx="3" fill="#3a3a3a"/>
  <rect x="410" y="555" width="20" height="20" rx="3" fill="#3a3a3a"/>
  <rect x="440" y="555" width="20" height="20" rx="3" fill="#3a3a3a"/>
  <rect x="470" y="555" width="20" height="20" rx="3" fill="#3a3a3a"/>
</svg>