<svg width="800" height="600" xmlns="http://www.w3.org/2000/svg">
  <rect width="800" height="600" fill="#1e1e1e"/>
  <text x="400" y="80" font-family="Arial" font-size="32" fill="#ffffff" text-anchor="middle">E-commerce Products</text>
  
  <!-- Search and filter bar -->
  <rect x="100" y="120" width="600" height="60" rx="8" fill="#2a2a2a"/>
  <rect x="120" y="135" width="300" height="30" rx="5" fill="#3a3a3a"/>
  <rect x="450" y="135" width="120" height="30" rx="5" fill="#3a3a3a"/>
  <rect x="590" y="135" width="90" height="30" rx="5" fill="#4a90e2"/>
  
  <!-- Product grid -->
  <rect x="100" y="200" width="180" height="180" rx="8" fill="#2a2a2a"/>
  <rect x="120" y="220" width="140" height="100" rx="5" fill="#3a3a3a"/>
  <rect x="120" y="330" width="140" height="20" rx="3" fill="#3a3a3a"/>
  <rect x="120" y="360" width="80" height="10" rx="2" fill="#4a90e2"/>
  
  <rect x="310" y="200" width="180" height="180" rx="8" fill="#2a2a2a"/>
  <rect x="330" y="220" width="140" height="100" rx="5" fill="#3a3a3a"/>
  <rect x="330" y="330" width="140" height="20" rx="3" fill="#3a3a3a"/>
  <rect x="330" y="360" width="80" height="10" rx="2" fill="#4a90e2"/>
  
  <rect x="520" y="200" width="180" height="180" rx="8" fill="#2a2a2a"/>
  <rect x="540" y="220" width="140" height="100" rx="5" fill="#3a3a3a"/>
  <rect x="540" y="330" width="140" height="20" rx="3" fill="#3a3a3a"/>
  <rect x="540" y="360" width="80" height="10" rx="2" fill="#4a90e2"/>
  
  <rect x="100" y="400" width="180" height="180" rx="8" fill="#2a2a2a"/>
  <rect x="120" y="420" width="140" height="100" rx="5" fill="#3a3a3a"/>
  <rect x="120" y="530" width="140" height="20" rx="3" fill="#3a3a3a"/>
  <rect x="120" y="560" width="80" height="10" rx="2" fill="#4a90e2"/>
  
  <rect x="310" y="400" width="180" height="180" rx="8" fill="#2a2a2a"/>
  <rect x="330" y="420" width="140" height="100" rx="5" fill="#3a3a3a"/>
  <rect x="330" y="530" width="140" height="20" rx="3" fill="#3a3a3a"/>
  <rect x="330" y="560" width="80" height="10" rx="2" fill="#4a90e2"/>
  
  <rect x="520" y="400" width="180" height="180" rx="8" fill="#2a2a2a"/>
  <rect x="540" y="420" width="140" height="100" rx="5" fill="#3a3a3a"/>
  <rect x="540" y="530" width="140" height="20" rx="3" fill="#3a3a3a"/>
  <rect x="540" y="560" width="80" height="10" rx="2" fill="#4a90e2"/>
</svg>