<svg width="800" height="600" xmlns="http://www.w3.org/2000/svg">
  <rect width="800" height="600" fill="#1e1e1e"/>
  <text x="400" y="100" font-family="Arial" font-size="32" fill="#ffffff" text-anchor="middle">E-commerce Dashboard</text>
  <rect x="100" y="150" width="600" height="100" rx="10" fill="#2a2a2a"/>
  <rect x="120" y="180" width="200" height="40" rx="5" fill="#3a3a3a"/>
  <rect x="350" y="180" width="150" height="40" rx="5" fill="#3a3a3a"/>
  <rect x="530" y="180" width="150" height="40" rx="5" fill="#3a3a3a"/>
  
  <rect x="100" y="280" width="280" height="250" rx="10" fill="#2a2a2a"/>
  <circle cx="240" cy="380" r="100" fill="none" stroke="#4a90e2" stroke-width="30"/>
  <text x="240" y="390" font-family="Arial" font-size="24" fill="#ffffff" text-anchor="middle">75%</text>
  
  <rect x="420" y="280" width="280" height="250" rx="10" fill="#2a2a2a"/>
  <rect x="440" y="320" width="240" height="30" rx="5" fill="#3a3a3a"/>
  <rect x="440" y="370" width="180" height="30" rx="5" fill="#3a3a3a"/>
  <rect x="440" y="420" width="220" height="30" rx="5" fill="#3a3a3a"/>
  <rect x="440" y="470" width="150" height="30" rx="5" fill="#3a3a3a"/>
</svg>